REM DIRINDEX 1\2,1\3,1\4,1\5
REM DIRNAME cjc044,folder01,folder02,folder03,folder04
TITLE ""
FILE "1800_130.mp3" MP3
  TRACK 01 AUDIO
    TITLE "2:cjc044_3853"
    INDEX 01 00:00:00
  TRACK 02 AUDIO
    TITLE "0:"
    INDEX 01 00:01:13
  TRACK 03 AUDIO
    TITLE "3:cjc044_3854"
    INDEX 01 00:01:71
  TRACK 04 AUDIO
    TITLE "0:"
    INDEX 01 00:03:10
  TRACK 05 AUDIO
    TITLE "4:cjc044_3855"
    INDEX 01 00:03:70
  TRACK 06 AUDIO
    TITLE "0:"
    INDEX 01 00:05:16
  TRACK 07 AUDIO
    TITLE "5:cjc044_3856"
    INDEX 01 00:05:65
  TRACK 08 AUDIO
    TITLE "0:"
    INDEX 01 00:08:52
  TRACK 09 AUDIO
    TITLE "2:cjc044_3857"
    INDEX 01 00:10:33
  TRACK 10 AUDIO
    TITLE "0:"
    INDEX 01 00:11:64
  TRACK 11 AUDIO
    TITLE "3:cjc044_3858"
    INDEX 01 00:12:48
  TRACK 12 AUDIO
    TITLE "0:"
    INDEX 01 00:13:33
  TRACK 13 AUDIO
    TITLE "4:cjc044_3859"
    INDEX 01 00:14:13
  TRACK 14 AUDIO
    TITLE "0:"
    INDEX 01 00:15:44
  TRACK 15 AUDIO
    TITLE "5:cjc044_3860"
    INDEX 01 00:16:28
  TRACK 16 AUDIO
    TITLE "0:"
    INDEX 01 00:20:37
  TRACK 17 AUDIO
    TITLE "2:cjc044_3861"
    INDEX 01 00:22:27
  TRACK 18 AUDIO
    TITLE "0:"
    INDEX 01 00:23:40
  TRACK 19 AUDIO
    TITLE "3:cjc044_3862"
    INDEX 01 00:24:22
  TRACK 20 AUDIO
    TITLE "0:"
    INDEX 01 00:25:35
  TRACK 21 AUDIO
    TITLE "4:cjc044_3863"
    INDEX 01 00:26:11
  TRACK 22 AUDIO
    TITLE "0:"
    INDEX 01 00:27:28
  TRACK 23 AUDIO
    TITLE "5:cjc044_3864"
    INDEX 01 00:28:10
  TRACK 24 AUDIO
    TITLE "0:"
    INDEX 01 00:31:43
  TRACK 25 AUDIO
    TITLE "2:cjc044_3865"
    INDEX 01 00:33:30
  TRACK 26 AUDIO
    TITLE "0:"
    INDEX 01 00:34:43
  TRACK 27 AUDIO
    TITLE "3:cjc044_3866"
    INDEX 01 00:35:29
  TRACK 28 AUDIO
    TITLE "0:"
    INDEX 01 00:36:44
  TRACK 29 AUDIO
    TITLE "4:cjc044_3867"
    INDEX 01 00:37:28
  TRACK 30 AUDIO
    TITLE "0:"
    INDEX 01 00:38:41
  TRACK 31 AUDIO
    TITLE "5:cjc044_3868"
    INDEX 01 00:39:25
  TRACK 32 AUDIO
    TITLE "0:"
    INDEX 01 00:42:59
  TRACK 33 AUDIO
    TITLE "2:cjc044_3869"
    INDEX 01 00:44:44
  TRACK 34 AUDIO
    TITLE "0:"
    INDEX 01 00:45:43
  TRACK 35 AUDIO
    TITLE "3:cjc044_3870"
    INDEX 01 00:46:31
  TRACK 36 AUDIO
    TITLE "0:"
    INDEX 01 00:47:19
  TRACK 37 AUDIO
    TITLE "4:cjc044_3871"
    INDEX 01 00:48:02
  TRACK 38 AUDIO
    TITLE "0:"
    INDEX 01 00:49:04
  TRACK 39 AUDIO
    TITLE "5:cjc044_3872"
    INDEX 01 00:49:67
  TRACK 40 AUDIO
    TITLE "0:"
    INDEX 01 00:52:65
  TRACK 41 AUDIO
    TITLE "2:cjc044_3873"
    INDEX 01 00:54:46
  TRACK 42 AUDIO
    TITLE "0:"
    INDEX 01 00:55:55
  TRACK 43 AUDIO
    TITLE "3:cjc044_3874"
    INDEX 01 00:56:43
  TRACK 44 AUDIO
    TITLE "0:"
    INDEX 01 00:57:50
  TRACK 45 AUDIO
    TITLE "4:cjc044_3875"
    INDEX 01 00:58:34
  TRACK 46 AUDIO
    TITLE "0:"
    INDEX 01 00:59:49
  TRACK 47 AUDIO
    TITLE "5:cjc044_3876"
    INDEX 01 01:00:25
  TRACK 48 AUDIO
    TITLE "0:"
    INDEX 01 01:03:37
  TRACK 49 AUDIO
    TITLE "2:cjc044_3877"
    INDEX 01 01:05:28
  TRACK 50 AUDIO
    TITLE "0:"
    INDEX 01 01:06:32
  TRACK 51 AUDIO
    TITLE "3:cjc044_3878"
    INDEX 01 01:07:19
  TRACK 52 AUDIO
    TITLE "0:"
    INDEX 01 01:08:40
  TRACK 53 AUDIO
    TITLE "4:cjc044_3879"
    INDEX 01 01:09:22
  TRACK 54 AUDIO
    TITLE "0:"
    INDEX 01 01:10:28
  TRACK 55 AUDIO
    TITLE "5:cjc044_3880"
    INDEX 01 01:11:03
  TRACK 56 AUDIO
    TITLE "0:"
    INDEX 01 01:14:02
  TRACK 57 AUDIO
    TITLE "2:cjc044_3881"
    INDEX 01 01:15:68
  TRACK 58 AUDIO
    TITLE "0:"
    INDEX 01 01:16:67
  TRACK 59 AUDIO
    TITLE "3:cjc044_3882"
    INDEX 01 01:17:49
  TRACK 60 AUDIO
    TITLE "0:"
    INDEX 01 01:18:58
  TRACK 61 AUDIO
    TITLE "4:cjc044_3883"
    INDEX 01 01:19:46
  TRACK 62 AUDIO
    TITLE "0:"
    INDEX 01 01:20:46
  TRACK 63 AUDIO
    TITLE "5:cjc044_3884"
    INDEX 01 01:21:23
  TRACK 64 AUDIO
    TITLE "0:"
    INDEX 01 01:24:22
  TRACK 65 AUDIO
    TITLE "2:cjc044_3885"
    INDEX 01 01:26:11
  TRACK 66 AUDIO
    TITLE "0:"
    INDEX 01 01:27:10
  TRACK 67 AUDIO
    TITLE "3:cjc044_3886"
    INDEX 01 01:27:73
  TRACK 68 AUDIO
    TITLE "0:"
    INDEX 01 01:30:05
  TRACK 69 AUDIO
    TITLE "4:cjc044_3887"
    INDEX 01 01:30:69
  TRACK 70 AUDIO
    TITLE "0:"
    INDEX 01 01:31:73
  TRACK 71 AUDIO
    TITLE "5:cjc044_3888"
    INDEX 01 01:32:57
  TRACK 72 AUDIO
    TITLE "0:"
    INDEX 01 01:35:31
  TRACK 73 AUDIO
    TITLE "2:cjc044_3889"
    INDEX 01 01:37:13
  TRACK 74 AUDIO
    TITLE "0:"
    INDEX 01 01:38:34
  TRACK 75 AUDIO
    TITLE "3:cjc044_3890"
    INDEX 01 01:39:19
  TRACK 76 AUDIO
    TITLE "0:"
    INDEX 01 01:40:52
  TRACK 77 AUDIO
    TITLE "4:cjc044_3891"
    INDEX 01 01:41:38
  TRACK 78 AUDIO
    TITLE "0:"
    INDEX 01 01:42:61
  TRACK 79 AUDIO
    TITLE "5:cjc044_3892"
    INDEX 01 01:43:45
  TRACK 80 AUDIO
    TITLE "0:"
    INDEX 01 01:46:55
